<?xml version="1.0" encoding="UTF-8" standalone="no"?><!DOCTYPE svg PUBLIC "-//W3C//DTD SVG 1.1//EN" "http://www.w3.org/Graphics/SVG/1.1/DTD/svg11.dtd"><svg width="100%" height="100%" viewBox="0 0 198 198" version="1.1" xmlns="http://www.w3.org/2000/svg" xmlns:xlink="http://www.w3.org/1999/xlink" xml:space="preserve" xmlns:serif="http://www.serif.com/" style="fill-rule:evenodd;clip-rule:evenodd;stroke-linejoin:round;stroke-miterlimit:2;"><path id="fg-logo" d="M99.042,0.117c54.596,-0 98.921,44.325 98.921,98.921c0,54.596 -44.325,98.921 -98.921,98.921c-54.596,-0 -98.921,-44.325 -98.921,-98.921c-0,-54.596 44.325,-98.921 98.921,-98.921Zm-50.87,66.864l0,5.621l-8.699,6.692l-0,9.771l8.699,-0l0,49.922l18.336,0l0,-49.922l17.801,-0l-0,-16.463l-17.801,0l0,-7.896c0,-3.123 0.781,-5.51 2.342,-7.161c1.562,-1.65 4.038,-2.476 7.429,-2.476c0.535,0 1.093,0.023 1.673,0.067c0.58,0.045 1.226,0.112 1.94,0.201l4.417,0.669l1.472,-13.518c-2.052,-0.714 -4.104,-1.249 -6.156,-1.606c-2.053,-0.357 -4.105,-0.535 -6.157,-0.535c-3.391,-0 -6.603,0.513 -9.637,1.539c-3.033,1.026 -5.71,2.632 -8.03,4.818c-2.32,2.186 -4.171,4.952 -5.554,8.298c-1.383,3.346 -2.075,7.339 -2.075,11.979Zm91.679,5.621l-2.677,5.086c-2.409,-2.409 -5.309,-4.171 -8.7,-5.286c-3.39,-1.116 -7.182,-1.673 -11.376,-1.673c-4.461,-0 -8.588,0.87 -12.38,2.609c-3.792,1.74 -7.071,4.105 -9.837,7.094c-2.767,2.989 -4.93,6.491 -6.492,10.506c-1.561,4.016 -2.342,8.298 -2.342,12.849c0,4.551 0.781,8.856 2.342,12.916c1.562,4.059 3.725,7.584 6.492,10.573c2.766,2.989 6.045,5.354 9.837,7.094c3.792,1.739 7.919,2.609 12.38,2.609c4.015,0 7.718,-0.691 11.109,-2.074c3.39,-1.383 6.379,-3.235 8.967,-5.554l-0,1.338c-0,3.658 -0.558,6.759 -1.673,9.302c-1.115,2.543 -2.632,4.662 -4.551,6.357c-1.918,1.696 -4.171,2.922 -6.759,3.681c-2.587,0.758 -5.353,1.137 -8.298,1.137c-2.23,0 -4.439,-0.2 -6.625,-0.602c-2.186,-0.401 -4.238,-0.959 -6.156,-1.673c-1.919,-0.714 -3.614,-1.561 -5.086,-2.543c-1.472,-0.981 -2.61,-2.097 -3.413,-3.346l-0,17.266c3.212,1.873 6.826,3.346 10.841,4.416c4.015,1.071 8.298,1.606 12.849,1.606c5.353,0 10.461,-0.713 15.324,-2.141c4.863,-1.428 9.258,-4.06 13.183,-7.897c2.142,-2.141 3.815,-4.461 5.019,-6.959c1.205,-2.499 2.075,-5.332 2.61,-8.499c0.536,-3.168 0.87,-6.737 1.004,-10.707c0.134,-3.971 0.201,-8.499 0.201,-13.585l-0,-43.9l-15.793,0Zm-19.006,47.915c-2.319,0 -4.461,-0.424 -6.424,-1.271c-1.963,-0.848 -3.68,-2.03 -5.153,-3.547c-1.472,-1.517 -2.632,-3.279 -3.48,-5.287c-0.847,-2.007 -1.271,-4.171 -1.271,-6.491c-0,-2.32 0.424,-4.484 1.271,-6.491c0.848,-2.008 2.008,-3.77 3.48,-5.287c1.473,-1.517 3.19,-2.721 5.153,-3.614c1.963,-0.892 4.105,-1.338 6.424,-1.338c2.767,-0 5.176,0.491 7.228,1.472c2.052,0.982 3.747,2.253 5.086,3.815c1.338,1.561 2.342,3.346 3.011,5.353c0.669,2.008 1.004,4.038 1.004,6.09c-0,1.874 -0.312,3.792 -0.937,5.755c-0.624,1.963 -1.606,3.748 -2.944,5.354c-1.339,1.606 -3.034,2.922 -5.086,3.948c-2.053,1.026 -4.506,1.539 -7.362,1.539Z" style="fill:#cb6ce6;"/></svg>