<?xml version="1.0" encoding="UTF-8" standalone="no"?>
<!DOCTYPE svg PUBLIC "-//W3C//DTD SVG 1.1//EN" "http://www.w3.org/Graphics/SVG/1.1/DTD/svg11.dtd">
<svg width="100%" height="100%" viewBox="0 0 199 200" version="1.1" xmlns="http://www.w3.org/2000/svg" xmlns:xlink="http://www.w3.org/1999/xlink" xml:space="preserve" xmlns:serif="http://www.serif.com/" style="fill-rule:evenodd;clip-rule:evenodd;stroke-linejoin:round;stroke-miterlimit:2;">
    <g transform="matrix(1,0,0,1,-220,-366)">
        <g id="fg-logo-bl" transform="matrix(-0.772821,0,0,0.772821,418.414,367.473)">
            <path d="M128,-0C57.355,-0 0,57.355 0,128C0,198.645 57.355,256 128,256C198.645,256 256,198.645 256,128C256,57.355 198.645,-0 128,-0ZM193.824,86.52L193.824,93.794L205.081,102.453L205.081,115.095L193.824,115.095L193.824,179.693L170.098,179.693L170.098,115.095L147.064,115.095L147.064,93.794L170.098,93.794L170.098,83.576C170.098,79.535 169.087,76.446 167.067,74.31C165.046,72.174 161.842,71.106 157.455,71.106C156.762,71.106 156.041,71.135 155.29,71.193C154.54,71.251 153.703,71.337 152.779,71.453L147.064,72.319L145.159,54.827C147.815,53.904 150.47,53.211 153.126,52.749C155.781,52.287 158.436,52.056 161.092,52.056C165.479,52.056 169.636,52.72 173.561,54.048C177.487,55.376 180.95,57.454 183.952,60.282C186.954,63.111 189.35,66.69 191.139,71.02C192.929,75.349 193.824,80.516 193.824,86.52ZM75.195,93.794L78.659,100.375C81.776,97.257 85.528,94.977 89.916,93.534C94.303,92.091 99.21,91.369 104.636,91.369C110.409,91.369 115.749,92.495 120.656,94.746C125.563,96.997 129.806,100.057 133.385,103.925C136.964,107.793 139.764,112.324 141.784,117.52C143.805,122.715 144.815,128.257 144.815,134.145C144.815,140.034 143.805,145.604 141.784,150.858C139.764,156.111 136.964,160.671 133.385,164.539C129.806,168.407 125.563,171.466 120.656,173.718C115.749,175.969 110.409,177.095 104.636,177.095C99.441,177.095 94.65,176.2 90.262,174.411C85.875,172.621 82.007,170.225 78.659,167.223L78.659,168.955C78.659,173.689 79.38,177.701 80.824,180.992C82.267,184.282 84.23,187.024 86.712,189.218C89.194,191.411 92.109,192.999 95.458,193.98C98.806,194.962 102.385,195.452 106.195,195.452C109.081,195.452 111.939,195.193 114.768,194.673C117.596,194.154 120.252,193.432 122.734,192.508C125.216,191.585 127.41,190.488 129.315,189.218C131.22,187.948 132.692,186.505 133.731,184.888L133.731,207.229C129.575,209.653 124.899,211.559 119.703,212.944C114.508,214.329 108.966,215.022 103.078,215.022C96.15,215.022 89.541,214.099 83.248,212.251C76.956,210.404 71.27,206.998 66.19,202.033C63.419,199.262 61.254,196.261 59.695,193.028C58.137,189.795 57.011,186.129 56.318,182.031C55.625,177.932 55.192,173.314 55.019,168.176C54.846,163.038 54.76,157.179 54.76,150.598L54.76,93.794L75.195,93.794ZM99.787,155.793C102.789,155.793 105.56,155.245 108.1,154.148C110.64,153.051 112.863,151.521 114.768,149.559C116.673,147.596 118.174,145.316 119.27,142.718C120.367,140.12 120.916,137.32 120.916,134.319C120.916,131.317 120.367,128.517 119.27,125.919C118.174,123.321 116.673,121.041 114.768,119.078C112.863,117.116 110.64,115.557 108.1,114.402C105.56,113.248 102.789,112.671 99.787,112.671C96.208,112.671 93.091,113.306 90.435,114.576C87.78,115.846 85.586,117.491 83.854,119.511C82.123,121.532 80.824,123.841 79.958,126.439C79.092,129.036 78.659,131.663 78.659,134.319C78.659,136.743 79.063,139.225 79.871,141.765C80.679,144.305 81.949,146.615 83.681,148.693C85.413,150.771 87.607,152.474 90.262,153.802C92.918,155.129 96.093,155.793 99.787,155.793Z" style="stroke:#cb6ce6;stroke-width:1.29px;"/>
        </g>
    </g>
</svg>
