<?xml version="1.0" encoding="UTF-8" standalone="no"?>
<!DOCTYPE svg PUBLIC "-//W3C//DTD SVG 1.1//EN" "http://www.w3.org/Graphics/SVG/1.1/DTD/svg11.dtd">
<svg width="100%" height="100%" viewBox="0 0 557 140" version="1.1" xmlns="http://www.w3.org/2000/svg" xmlns:xlink="http://www.w3.org/1999/xlink" xml:space="preserve" xmlns:serif="http://www.serif.com/" style="fill-rule:evenodd;clip-rule:evenodd;stroke-linejoin:round;stroke-miterlimit:2;">
    <g transform="matrix(1,0,0,1,-338,-52)">
        <g id="fg-sub1">
            <g transform="matrix(1,0,0,1,-2.1942,90.8405)">
                <g transform="matrix(49.7301,0,0,49.7301,341.824,88.0587)">
                    <path d="M-0.018,-0.372C0.003,-0.371 0.018,-0.371 0.027,-0.37C0.035,-0.369 0.041,-0.369 0.046,-0.369L0.075,-0.369C0.08,-0.369 0.087,-0.369 0.094,-0.368C0.105,-0.369 0.114,-0.369 0.121,-0.369L0.161,-0.369C0.167,-0.369 0.173,-0.369 0.18,-0.37C0.187,-0.371 0.198,-0.371 0.213,-0.372L0.213,-0.36C0.199,-0.358 0.185,-0.353 0.172,-0.346C0.159,-0.339 0.152,-0.327 0.152,-0.311C0.152,-0.3 0.157,-0.282 0.166,-0.26C0.174,-0.237 0.185,-0.213 0.197,-0.188C0.208,-0.163 0.22,-0.14 0.231,-0.119C0.242,-0.097 0.25,-0.081 0.255,-0.072C0.262,-0.085 0.271,-0.102 0.284,-0.125C0.297,-0.147 0.309,-0.17 0.322,-0.194C0.334,-0.218 0.345,-0.241 0.354,-0.262C0.363,-0.283 0.367,-0.299 0.367,-0.31C0.367,-0.329 0.362,-0.342 0.351,-0.348C0.339,-0.354 0.326,-0.358 0.31,-0.36L0.31,-0.372C0.323,-0.371 0.338,-0.37 0.357,-0.369C0.376,-0.368 0.392,-0.368 0.406,-0.368C0.421,-0.368 0.435,-0.368 0.45,-0.369C0.464,-0.37 0.478,-0.371 0.493,-0.372L0.493,-0.36C0.484,-0.359 0.476,-0.357 0.467,-0.354C0.458,-0.35 0.45,-0.344 0.441,-0.336C0.432,-0.327 0.422,-0.316 0.413,-0.302C0.403,-0.288 0.393,-0.27 0.382,-0.249C0.359,-0.205 0.335,-0.162 0.312,-0.12C0.289,-0.078 0.267,-0.034 0.248,0.012L0.212,0.012C0.191,-0.036 0.167,-0.085 0.143,-0.136C0.118,-0.186 0.095,-0.234 0.075,-0.28C0.066,-0.299 0.054,-0.317 0.039,-0.332C0.024,-0.347 0.005,-0.357 -0.018,-0.36L-0.018,-0.372Z" style="fill:#505050;fill-rule:nonzero;"/>
                </g>
                <g transform="matrix(49.7301,0,0,49.7301,368.019,88.0587)">
                    <path d="M0.104,-0.21C0.104,-0.175 0.109,-0.147 0.118,-0.124C0.127,-0.101 0.138,-0.083 0.152,-0.07C0.165,-0.057 0.18,-0.047 0.196,-0.042C0.211,-0.037 0.226,-0.034 0.239,-0.034C0.267,-0.034 0.292,-0.039 0.315,-0.048C0.338,-0.056 0.359,-0.071 0.378,-0.09L0.395,-0.074C0.368,-0.045 0.34,-0.022 0.311,-0.007C0.282,0.008 0.248,0.016 0.208,0.016C0.179,0.016 0.154,0.01 0.131,-0.001C0.108,-0.012 0.089,-0.027 0.073,-0.046C0.057,-0.065 0.045,-0.086 0.037,-0.11C0.028,-0.134 0.024,-0.159 0.024,-0.184C0.024,-0.209 0.028,-0.234 0.037,-0.258C0.045,-0.282 0.057,-0.303 0.073,-0.322C0.089,-0.341 0.108,-0.356 0.131,-0.367C0.154,-0.378 0.179,-0.384 0.208,-0.384C0.261,-0.384 0.303,-0.37 0.335,-0.341C0.367,-0.312 0.387,-0.269 0.394,-0.21L0.104,-0.21ZM0.299,-0.24C0.297,-0.258 0.294,-0.274 0.291,-0.289C0.288,-0.303 0.282,-0.315 0.275,-0.325C0.268,-0.334 0.258,-0.342 0.246,-0.347C0.234,-0.352 0.219,-0.354 0.2,-0.354C0.186,-0.354 0.173,-0.35 0.162,-0.344C0.15,-0.337 0.14,-0.328 0.132,-0.317C0.123,-0.306 0.117,-0.293 0.113,-0.28C0.108,-0.266 0.106,-0.253 0.106,-0.24L0.299,-0.24Z" style="fill:#505050;fill-rule:nonzero;"/>
                </g>
                <g transform="matrix(49.7301,0,0,49.7301,391.428,88.0587)">
                    <path d="M0.416,-0.287C0.419,-0.297 0.42,-0.308 0.42,-0.32C0.42,-0.327 0.417,-0.333 0.41,-0.337C0.403,-0.34 0.395,-0.342 0.386,-0.342C0.381,-0.342 0.374,-0.34 0.367,-0.337C0.36,-0.334 0.354,-0.331 0.35,-0.329C0.355,-0.315 0.36,-0.302 0.363,-0.289C0.366,-0.276 0.367,-0.262 0.367,-0.247C0.367,-0.229 0.364,-0.212 0.357,-0.197C0.35,-0.182 0.341,-0.168 0.328,-0.157C0.315,-0.145 0.299,-0.136 0.28,-0.129C0.261,-0.122 0.239,-0.119 0.214,-0.119C0.181,-0.119 0.15,-0.127 0.122,-0.143C0.111,-0.136 0.1,-0.129 0.09,-0.12C0.079,-0.111 0.074,-0.098 0.074,-0.083C0.074,-0.068 0.08,-0.057 0.091,-0.052C0.101,-0.047 0.122,-0.044 0.152,-0.044C0.159,-0.044 0.167,-0.044 0.177,-0.045C0.186,-0.046 0.196,-0.046 0.207,-0.047C0.218,-0.048 0.228,-0.048 0.239,-0.049C0.25,-0.05 0.26,-0.05 0.269,-0.05C0.292,-0.05 0.313,-0.048 0.332,-0.045C0.351,-0.041 0.368,-0.034 0.381,-0.025C0.394,-0.016 0.405,-0.003 0.413,0.014C0.42,0.031 0.424,0.052 0.424,0.078C0.424,0.109 0.417,0.136 0.403,0.158C0.388,0.179 0.37,0.197 0.348,0.211C0.325,0.224 0.3,0.234 0.273,0.241C0.246,0.247 0.219,0.25 0.192,0.25C0.171,0.25 0.15,0.248 0.128,0.243C0.106,0.238 0.086,0.231 0.068,0.221C0.05,0.21 0.035,0.196 0.024,0.179C0.012,0.162 0.006,0.14 0.006,0.115C0.006,0.096 0.01,0.078 0.019,0.061C0.027,0.044 0.038,0.029 0.052,0.016C0.032,0.001 0.022,-0.021 0.022,-0.049C0.022,-0.076 0.029,-0.098 0.044,-0.117C0.058,-0.135 0.077,-0.149 0.1,-0.159C0.087,-0.168 0.077,-0.181 0.071,-0.197C0.064,-0.213 0.061,-0.231 0.061,-0.25C0.061,-0.269 0.065,-0.287 0.072,-0.304C0.079,-0.32 0.088,-0.334 0.101,-0.346C0.114,-0.358 0.129,-0.367 0.147,-0.374C0.164,-0.381 0.184,-0.384 0.205,-0.384C0.228,-0.384 0.251,-0.382 0.272,-0.377C0.293,-0.372 0.313,-0.362 0.332,-0.347C0.347,-0.354 0.363,-0.362 0.379,-0.369C0.394,-0.376 0.411,-0.38 0.428,-0.38C0.44,-0.38 0.45,-0.376 0.459,-0.368C0.468,-0.36 0.472,-0.353 0.472,-0.346L0.472,-0.322C0.472,-0.315 0.471,-0.31 0.47,-0.306L0.416,-0.287ZM0.219,0.188C0.233,0.188 0.25,0.187 0.27,0.185C0.289,0.182 0.308,0.178 0.326,0.171C0.343,0.164 0.358,0.155 0.371,0.143C0.384,0.131 0.39,0.115 0.39,0.096C0.39,0.067 0.379,0.047 0.356,0.037C0.333,0.025 0.3,0.02 0.256,0.02C0.207,0.02 0.169,0.021 0.142,0.022C0.115,0.023 0.092,0.023 0.073,0.023C0.068,0.032 0.064,0.042 0.062,0.054C0.059,0.065 0.058,0.077 0.058,0.088C0.058,0.107 0.064,0.123 0.075,0.136C0.086,0.149 0.099,0.159 0.116,0.167C0.132,0.174 0.149,0.18 0.168,0.183C0.187,0.186 0.204,0.188 0.219,0.188ZM0.135,-0.252C0.135,-0.238 0.137,-0.225 0.14,-0.212C0.143,-0.199 0.148,-0.188 0.155,-0.178C0.161,-0.168 0.169,-0.16 0.179,-0.154C0.189,-0.148 0.201,-0.145 0.214,-0.145C0.227,-0.145 0.239,-0.148 0.249,-0.154C0.259,-0.16 0.267,-0.168 0.274,-0.178C0.28,-0.188 0.285,-0.199 0.288,-0.212C0.291,-0.225 0.293,-0.238 0.293,-0.252C0.293,-0.266 0.291,-0.279 0.288,-0.292C0.285,-0.305 0.28,-0.316 0.274,-0.326C0.267,-0.335 0.259,-0.343 0.249,-0.349C0.239,-0.355 0.227,-0.358 0.214,-0.358C0.201,-0.358 0.189,-0.355 0.179,-0.349C0.169,-0.343 0.161,-0.335 0.155,-0.326C0.148,-0.316 0.143,-0.305 0.14,-0.292C0.137,-0.279 0.135,-0.266 0.135,-0.252Z" style="fill:#505050;fill-rule:nonzero;"/>
                </g>
                <g transform="matrix(49.7301,0,0,49.7301,417.623,88.0587)">
                    <path d="M0.054,-0.292C0.059,-0.313 0.067,-0.329 0.077,-0.342C0.086,-0.354 0.097,-0.363 0.11,-0.37C0.123,-0.376 0.137,-0.38 0.153,-0.382C0.169,-0.383 0.186,-0.384 0.204,-0.384C0.221,-0.384 0.239,-0.382 0.256,-0.379C0.273,-0.375 0.288,-0.369 0.302,-0.36C0.315,-0.351 0.326,-0.34 0.335,-0.326C0.343,-0.311 0.347,-0.294 0.347,-0.273L0.347,-0.088C0.347,-0.075 0.35,-0.064 0.357,-0.055C0.364,-0.045 0.374,-0.04 0.388,-0.04C0.401,-0.04 0.413,-0.044 0.424,-0.052C0.434,-0.059 0.444,-0.067 0.453,-0.074L0.463,-0.063C0.456,-0.056 0.448,-0.048 0.44,-0.04C0.431,-0.031 0.421,-0.022 0.411,-0.014C0.401,-0.005 0.391,0.002 0.381,0.008C0.37,0.013 0.36,0.016 0.35,0.016C0.343,0.016 0.336,0.014 0.329,0.01C0.322,0.005 0.315,0 0.308,-0.006C0.301,-0.012 0.294,-0.018 0.288,-0.025C0.282,-0.032 0.277,-0.037 0.272,-0.042C0.251,-0.027 0.227,-0.014 0.2,-0.002C0.173,0.01 0.147,0.016 0.122,0.016C0.108,0.016 0.095,0.014 0.082,0.009C0.069,0.004 0.057,-0.002 0.047,-0.011C0.037,-0.02 0.029,-0.03 0.023,-0.042C0.017,-0.054 0.014,-0.068 0.014,-0.083C0.014,-0.11 0.022,-0.132 0.037,-0.149C0.052,-0.165 0.072,-0.177 0.097,-0.186C0.121,-0.195 0.149,-0.201 0.18,-0.204C0.211,-0.207 0.242,-0.208 0.273,-0.209L0.273,-0.285C0.273,-0.31 0.265,-0.329 0.25,-0.342C0.235,-0.355 0.215,-0.362 0.192,-0.362C0.175,-0.362 0.161,-0.353 0.151,-0.336C0.141,-0.319 0.136,-0.299 0.136,-0.277L0.054,-0.292ZM0.271,-0.17C0.249,-0.176 0.227,-0.179 0.204,-0.179C0.191,-0.179 0.179,-0.178 0.166,-0.175C0.153,-0.172 0.142,-0.167 0.132,-0.16C0.122,-0.153 0.114,-0.145 0.108,-0.135C0.101,-0.124 0.098,-0.112 0.098,-0.097C0.098,-0.074 0.106,-0.058 0.122,-0.049C0.137,-0.039 0.155,-0.034 0.174,-0.034C0.195,-0.034 0.215,-0.038 0.233,-0.047C0.25,-0.056 0.263,-0.063 0.271,-0.069L0.271,-0.17Z" style="fill:#505050;fill-rule:nonzero;"/>
                </g>
                <g transform="matrix(49.7301,0,0,49.7301,441.978,88.0587)">
                    <path d="M0.014,-0.356L0.16,-0.378L0.16,-0.325C0.178,-0.339 0.199,-0.352 0.222,-0.365C0.245,-0.378 0.268,-0.384 0.289,-0.384C0.308,-0.384 0.326,-0.382 0.343,-0.377C0.36,-0.372 0.375,-0.365 0.388,-0.354C0.401,-0.343 0.412,-0.329 0.42,-0.311C0.428,-0.293 0.432,-0.271 0.432,-0.244L0.432,-0.068C0.432,-0.046 0.438,-0.032 0.45,-0.025C0.462,-0.018 0.479,-0.012 0.502,-0.008L0.502,0.004C0.483,0.003 0.462,0.002 0.44,0.001C0.418,0 0.396,-0 0.373,-0C0.358,-0 0.343,0 0.329,0.001C0.314,0.002 0.3,0.003 0.287,0.004L0.287,-0.008C0.308,-0.012 0.325,-0.018 0.337,-0.025C0.348,-0.032 0.354,-0.046 0.354,-0.068L0.354,-0.229C0.354,-0.263 0.347,-0.289 0.333,-0.308C0.318,-0.327 0.295,-0.336 0.263,-0.336C0.252,-0.336 0.24,-0.334 0.228,-0.331C0.216,-0.328 0.205,-0.323 0.195,-0.318C0.185,-0.312 0.177,-0.306 0.17,-0.299C0.163,-0.292 0.16,-0.286 0.16,-0.28L0.16,-0.068C0.16,-0.046 0.166,-0.032 0.179,-0.025C0.192,-0.018 0.211,-0.012 0.236,-0.008L0.236,0.004C0.213,0.003 0.191,0.002 0.169,0.001C0.146,0 0.124,-0 0.101,-0C0.086,-0 0.071,0 0.057,0.001C0.042,0.002 0.027,0.003 0.012,0.004L0.012,-0.008C0.035,-0.012 0.052,-0.018 0.064,-0.025C0.076,-0.032 0.082,-0.046 0.082,-0.068L0.082,-0.3C0.082,-0.32 0.075,-0.332 0.062,-0.337C0.048,-0.342 0.032,-0.344 0.014,-0.344L0.014,-0.356Z" style="fill:#505050;fill-rule:nonzero;"/>
                </g>
                <g transform="matrix(49.7301,0,0,49.7301,485.706,88.0587)">
                    <path d="M0.158,-0.068C0.158,-0.046 0.164,-0.032 0.176,-0.025C0.188,-0.018 0.205,-0.012 0.227,-0.008L0.227,0.004C0.208,0.003 0.187,0.002 0.166,0.001C0.144,0 0.122,-0 0.099,-0C0.084,-0 0.069,0 0.054,0.001C0.039,0.002 0.024,0.003 0.007,0.004L0.007,-0.008C0.031,-0.012 0.049,-0.018 0.062,-0.025C0.074,-0.032 0.08,-0.046 0.08,-0.068L0.08,-0.272C0.08,-0.288 0.079,-0.301 0.077,-0.31C0.074,-0.319 0.07,-0.327 0.065,-0.332C0.06,-0.337 0.053,-0.34 0.044,-0.342C0.035,-0.344 0.025,-0.345 0.012,-0.346L0.012,-0.358L0.158,-0.378L0.158,-0.328C0.179,-0.343 0.201,-0.357 0.222,-0.368C0.243,-0.379 0.267,-0.384 0.295,-0.384C0.318,-0.384 0.339,-0.379 0.357,-0.37C0.374,-0.361 0.39,-0.347 0.405,-0.329C0.414,-0.335 0.423,-0.341 0.434,-0.348C0.445,-0.354 0.456,-0.36 0.467,-0.366C0.478,-0.371 0.49,-0.376 0.502,-0.379C0.514,-0.382 0.526,-0.384 0.537,-0.384C0.579,-0.384 0.612,-0.373 0.636,-0.35C0.66,-0.327 0.672,-0.292 0.672,-0.246L0.672,-0.068C0.672,-0.046 0.678,-0.032 0.691,-0.025C0.703,-0.018 0.721,-0.012 0.745,-0.008L0.745,0.004C0.724,0.003 0.702,0.002 0.68,0.001C0.658,0 0.636,-0 0.613,-0C0.598,-0 0.583,0 0.569,0.001C0.555,0.002 0.542,0.003 0.53,0.004L0.53,-0.008C0.549,-0.012 0.565,-0.018 0.577,-0.025C0.588,-0.032 0.594,-0.046 0.594,-0.068L0.594,-0.236C0.594,-0.269 0.586,-0.293 0.57,-0.31C0.553,-0.326 0.534,-0.334 0.513,-0.334C0.472,-0.334 0.44,-0.323 0.415,-0.302L0.415,-0.068C0.415,-0.046 0.421,-0.032 0.433,-0.025C0.445,-0.018 0.462,-0.012 0.484,-0.008L0.484,0.004C0.465,0.003 0.444,0.002 0.423,0.001C0.401,0 0.379,-0 0.356,-0C0.341,-0 0.326,0 0.312,0.001C0.298,0.002 0.285,0.003 0.273,0.004L0.273,-0.008C0.292,-0.012 0.308,-0.018 0.32,-0.025C0.331,-0.032 0.337,-0.046 0.337,-0.068L0.337,-0.236C0.337,-0.269 0.332,-0.294 0.322,-0.313C0.312,-0.331 0.29,-0.34 0.256,-0.34C0.246,-0.34 0.237,-0.339 0.23,-0.338C0.222,-0.336 0.214,-0.333 0.207,-0.329C0.2,-0.325 0.192,-0.32 0.185,-0.314C0.177,-0.307 0.168,-0.299 0.158,-0.29L0.158,-0.068Z" style="fill:#505050;fill-rule:nonzero;"/>
                </g>
                <g transform="matrix(49.7301,0,0,49.7301,525.726,88.0587)">
                    <path d="M0.104,-0.21C0.104,-0.175 0.109,-0.147 0.118,-0.124C0.127,-0.101 0.138,-0.083 0.152,-0.07C0.165,-0.057 0.18,-0.047 0.196,-0.042C0.211,-0.037 0.226,-0.034 0.239,-0.034C0.267,-0.034 0.292,-0.039 0.315,-0.048C0.338,-0.056 0.359,-0.071 0.378,-0.09L0.395,-0.074C0.368,-0.045 0.34,-0.022 0.311,-0.007C0.282,0.008 0.248,0.016 0.208,0.016C0.179,0.016 0.154,0.01 0.131,-0.001C0.108,-0.012 0.089,-0.027 0.073,-0.046C0.057,-0.065 0.045,-0.086 0.037,-0.11C0.028,-0.134 0.024,-0.159 0.024,-0.184C0.024,-0.209 0.028,-0.234 0.037,-0.258C0.045,-0.282 0.057,-0.303 0.073,-0.322C0.089,-0.341 0.108,-0.356 0.131,-0.367C0.154,-0.378 0.179,-0.384 0.208,-0.384C0.261,-0.384 0.303,-0.37 0.335,-0.341C0.367,-0.312 0.387,-0.269 0.394,-0.21L0.104,-0.21ZM0.299,-0.24C0.297,-0.258 0.294,-0.274 0.291,-0.289C0.288,-0.303 0.282,-0.315 0.275,-0.325C0.268,-0.334 0.258,-0.342 0.246,-0.347C0.234,-0.352 0.219,-0.354 0.2,-0.354C0.186,-0.354 0.173,-0.35 0.162,-0.344C0.15,-0.337 0.14,-0.328 0.132,-0.317C0.123,-0.306 0.117,-0.293 0.113,-0.28C0.108,-0.266 0.106,-0.253 0.106,-0.24L0.299,-0.24Z" style="fill:#505050;fill-rule:nonzero;"/>
                </g>
                <g transform="matrix(49.7301,0,0,49.7301,549.136,88.0587)">
                    <path d="M0.054,-0.292C0.059,-0.313 0.067,-0.329 0.077,-0.342C0.086,-0.354 0.097,-0.363 0.11,-0.37C0.123,-0.376 0.137,-0.38 0.153,-0.382C0.169,-0.383 0.186,-0.384 0.204,-0.384C0.221,-0.384 0.239,-0.382 0.256,-0.379C0.273,-0.375 0.288,-0.369 0.302,-0.36C0.315,-0.351 0.326,-0.34 0.335,-0.326C0.343,-0.311 0.347,-0.294 0.347,-0.273L0.347,-0.088C0.347,-0.075 0.35,-0.064 0.357,-0.055C0.364,-0.045 0.374,-0.04 0.388,-0.04C0.401,-0.04 0.413,-0.044 0.424,-0.052C0.434,-0.059 0.444,-0.067 0.453,-0.074L0.463,-0.063C0.456,-0.056 0.448,-0.048 0.44,-0.04C0.431,-0.031 0.421,-0.022 0.411,-0.014C0.401,-0.005 0.391,0.002 0.381,0.008C0.37,0.013 0.36,0.016 0.35,0.016C0.343,0.016 0.336,0.014 0.329,0.01C0.322,0.005 0.315,0 0.308,-0.006C0.301,-0.012 0.294,-0.018 0.288,-0.025C0.282,-0.032 0.277,-0.037 0.272,-0.042C0.251,-0.027 0.227,-0.014 0.2,-0.002C0.173,0.01 0.147,0.016 0.122,0.016C0.108,0.016 0.095,0.014 0.082,0.009C0.069,0.004 0.057,-0.002 0.047,-0.011C0.037,-0.02 0.029,-0.03 0.023,-0.042C0.017,-0.054 0.014,-0.068 0.014,-0.083C0.014,-0.11 0.022,-0.132 0.037,-0.149C0.052,-0.165 0.072,-0.177 0.097,-0.186C0.121,-0.195 0.149,-0.201 0.18,-0.204C0.211,-0.207 0.242,-0.208 0.273,-0.209L0.273,-0.285C0.273,-0.31 0.265,-0.329 0.25,-0.342C0.235,-0.355 0.215,-0.362 0.192,-0.362C0.175,-0.362 0.161,-0.353 0.151,-0.336C0.141,-0.319 0.136,-0.299 0.136,-0.277L0.054,-0.292ZM0.271,-0.17C0.249,-0.176 0.227,-0.179 0.204,-0.179C0.191,-0.179 0.179,-0.178 0.166,-0.175C0.153,-0.172 0.142,-0.167 0.132,-0.16C0.122,-0.153 0.114,-0.145 0.108,-0.135C0.101,-0.124 0.098,-0.112 0.098,-0.097C0.098,-0.074 0.106,-0.058 0.122,-0.049C0.137,-0.039 0.155,-0.034 0.174,-0.034C0.195,-0.034 0.215,-0.038 0.233,-0.047C0.25,-0.056 0.263,-0.063 0.271,-0.069L0.271,-0.17Z" style="fill:#505050;fill-rule:nonzero;"/>
                </g>
                <g transform="matrix(49.7301,0,0,49.7301,573.49,88.0587)">
                    <path d="M-0.001,-0.008C0.016,-0.009 0.029,-0.012 0.039,-0.016C0.049,-0.019 0.057,-0.025 0.062,-0.032C0.067,-0.039 0.071,-0.049 0.072,-0.062C0.073,-0.075 0.074,-0.091 0.074,-0.11L0.074,-0.612C0.074,-0.638 0.07,-0.656 0.062,-0.667C0.054,-0.677 0.035,-0.682 0.005,-0.682L0.005,-0.694L0.152,-0.712L0.152,-0.11C0.152,-0.091 0.153,-0.075 0.154,-0.062C0.155,-0.049 0.159,-0.039 0.165,-0.032C0.17,-0.025 0.178,-0.019 0.189,-0.016C0.199,-0.012 0.213,-0.009 0.231,-0.008L0.231,0.004C0.212,0.003 0.192,0.002 0.172,0.001C0.151,0 0.131,-0 0.111,-0C0.092,-0 0.073,0 0.055,0.001C0.036,0.002 0.018,0.003 -0.001,0.004L-0.001,-0.008Z" style="fill:#505050;fill-rule:nonzero;"/>
                </g>
                <g transform="matrix(49.7301,0,0,49.7301,587.7,88.0587)">
                    <path d="M0.029,-0.127L0.043,-0.127C0.052,-0.113 0.063,-0.099 0.075,-0.086C0.086,-0.073 0.099,-0.061 0.113,-0.05C0.127,-0.039 0.142,-0.031 0.158,-0.024C0.174,-0.017 0.191,-0.014 0.209,-0.014C0.218,-0.014 0.227,-0.015 0.236,-0.017C0.245,-0.018 0.253,-0.021 0.26,-0.025C0.267,-0.029 0.273,-0.034 0.278,-0.041C0.283,-0.048 0.285,-0.056 0.285,-0.066C0.285,-0.083 0.279,-0.096 0.267,-0.107C0.254,-0.118 0.239,-0.127 0.221,-0.135C0.203,-0.143 0.183,-0.151 0.162,-0.158C0.14,-0.165 0.12,-0.173 0.102,-0.183C0.084,-0.192 0.069,-0.204 0.057,-0.218C0.044,-0.232 0.038,-0.25 0.038,-0.272C0.038,-0.308 0.049,-0.336 0.072,-0.355C0.094,-0.374 0.122,-0.384 0.156,-0.384C0.181,-0.384 0.206,-0.381 0.23,-0.374C0.253,-0.367 0.278,-0.363 0.303,-0.362L0.309,-0.256L0.296,-0.256C0.289,-0.269 0.281,-0.281 0.271,-0.293C0.261,-0.304 0.25,-0.315 0.238,-0.324C0.225,-0.333 0.212,-0.34 0.198,-0.346C0.184,-0.351 0.17,-0.354 0.155,-0.354C0.138,-0.354 0.123,-0.35 0.11,-0.343C0.097,-0.336 0.09,-0.322 0.09,-0.303C0.09,-0.289 0.096,-0.278 0.109,-0.269C0.121,-0.26 0.136,-0.251 0.154,-0.244C0.172,-0.236 0.192,-0.228 0.214,-0.221C0.235,-0.214 0.255,-0.205 0.273,-0.195C0.291,-0.184 0.306,-0.171 0.319,-0.157C0.331,-0.141 0.337,-0.123 0.337,-0.101C0.337,-0.078 0.333,-0.059 0.326,-0.044C0.318,-0.029 0.307,-0.017 0.294,-0.008C0.281,0.001 0.265,0.007 0.248,0.011C0.23,0.014 0.211,0.016 0.191,0.016C0.175,0.016 0.16,0.015 0.145,0.013C0.13,0.01 0.117,0.007 0.104,0.004C0.091,0.001 0.078,-0.002 0.067,-0.005C0.056,-0.008 0.046,-0.01 0.037,-0.011L0.029,-0.127Z" style="fill:#505050;fill-rule:nonzero;"/>
                </g>
                <g transform="matrix(49.7301,0,0,49.7301,624.068,88.0587)">
                    <path d="M-0.027,-0.372C-0.014,-0.371 -0.003,-0.371 0.007,-0.37C0.016,-0.369 0.025,-0.369 0.034,-0.369C0.043,-0.368 0.051,-0.368 0.061,-0.368L0.091,-0.368C0.109,-0.368 0.127,-0.368 0.145,-0.369C0.163,-0.37 0.181,-0.371 0.199,-0.372L0.199,-0.359C0.185,-0.358 0.172,-0.354 0.161,-0.345C0.149,-0.335 0.143,-0.323 0.143,-0.308C0.143,-0.296 0.147,-0.28 0.155,-0.26C0.163,-0.239 0.172,-0.218 0.183,-0.196C0.194,-0.173 0.204,-0.152 0.215,-0.131C0.226,-0.11 0.233,-0.093 0.238,-0.08L0.339,-0.278C0.336,-0.287 0.332,-0.296 0.327,-0.305C0.322,-0.314 0.316,-0.323 0.309,-0.331C0.302,-0.338 0.293,-0.345 0.284,-0.35C0.275,-0.355 0.264,-0.359 0.252,-0.36L0.252,-0.372C0.259,-0.371 0.265,-0.371 0.272,-0.37C0.278,-0.369 0.285,-0.369 0.292,-0.369C0.299,-0.368 0.308,-0.368 0.318,-0.368L0.352,-0.368C0.373,-0.368 0.394,-0.368 0.415,-0.369C0.436,-0.37 0.456,-0.371 0.477,-0.372L0.477,-0.36C0.46,-0.359 0.445,-0.355 0.433,-0.346C0.42,-0.337 0.414,-0.323 0.414,-0.306C0.414,-0.297 0.418,-0.282 0.427,-0.261C0.435,-0.24 0.444,-0.217 0.456,-0.194C0.467,-0.17 0.477,-0.147 0.488,-0.125C0.498,-0.103 0.505,-0.087 0.509,-0.076C0.514,-0.086 0.523,-0.102 0.534,-0.123C0.545,-0.144 0.555,-0.167 0.566,-0.19C0.577,-0.213 0.586,-0.235 0.594,-0.256C0.602,-0.277 0.606,-0.292 0.606,-0.301C0.606,-0.321 0.602,-0.335 0.593,-0.344C0.584,-0.352 0.57,-0.357 0.551,-0.36L0.551,-0.372C0.566,-0.371 0.581,-0.37 0.596,-0.369C0.611,-0.368 0.626,-0.368 0.641,-0.368C0.656,-0.368 0.67,-0.368 0.685,-0.369C0.7,-0.37 0.714,-0.371 0.729,-0.372L0.729,-0.36C0.713,-0.358 0.699,-0.352 0.687,-0.342C0.675,-0.331 0.664,-0.319 0.655,-0.305C0.645,-0.29 0.636,-0.275 0.629,-0.258C0.621,-0.241 0.613,-0.225 0.606,-0.21L0.498,0.012L0.476,0.012L0.355,-0.251L0.226,0.012L0.201,0.012C0.192,-0.011 0.182,-0.034 0.171,-0.059C0.16,-0.084 0.148,-0.108 0.137,-0.133C0.126,-0.157 0.115,-0.181 0.104,-0.204C0.093,-0.227 0.082,-0.248 0.073,-0.267C0.062,-0.29 0.047,-0.311 0.03,-0.328C0.013,-0.345 -0.006,-0.356 -0.027,-0.36L-0.027,-0.372Z" style="fill:#505050;fill-rule:nonzero;"/>
                </g>
                <g transform="matrix(49.7301,0,0,49.7301,662.248,88.0587)">
                    <path d="M0.081,-0.249C0.081,-0.265 0.081,-0.279 0.08,-0.292C0.079,-0.304 0.076,-0.314 0.071,-0.323C0.066,-0.331 0.058,-0.338 0.048,-0.343C0.038,-0.348 0.024,-0.352 0.007,-0.354L0.007,-0.368L0.159,-0.378L0.159,-0.084C0.159,-0.067 0.16,-0.054 0.163,-0.045C0.166,-0.035 0.17,-0.027 0.177,-0.023C0.183,-0.017 0.191,-0.014 0.201,-0.012C0.211,-0.01 0.223,-0.009 0.238,-0.008L0.238,0.004C0.215,0.003 0.191,0.002 0.168,0.001C0.144,0 0.12,-0 0.097,-0C0.082,-0 0.067,0 0.052,0.001C0.037,0.002 0.022,0.003 0.007,0.004L0.007,-0.008C0.02,-0.009 0.032,-0.01 0.041,-0.012C0.05,-0.014 0.058,-0.017 0.064,-0.023C0.07,-0.027 0.074,-0.035 0.077,-0.045C0.08,-0.054 0.081,-0.067 0.081,-0.084L0.081,-0.249ZM0.11,-0.672C0.125,-0.672 0.137,-0.667 0.148,-0.656C0.158,-0.645 0.163,-0.632 0.163,-0.617C0.163,-0.602 0.158,-0.59 0.148,-0.579C0.137,-0.568 0.125,-0.562 0.11,-0.562C0.095,-0.562 0.083,-0.568 0.073,-0.579C0.062,-0.59 0.057,-0.602 0.057,-0.617C0.057,-0.632 0.062,-0.645 0.073,-0.656C0.083,-0.667 0.095,-0.672 0.11,-0.672Z" style="fill:#505050;fill-rule:nonzero;"/>
                </g>
                <g transform="matrix(49.7301,0,0,49.7301,676.458,88.0587)">
                    <path d="M-0.005,-0.337L-0.005,-0.353C0.016,-0.354 0.035,-0.359 0.05,-0.369C0.065,-0.379 0.079,-0.392 0.09,-0.407C0.101,-0.422 0.111,-0.439 0.119,-0.458C0.126,-0.477 0.133,-0.495 0.139,-0.512L0.153,-0.512L0.153,-0.367L0.29,-0.367L0.29,-0.337L0.153,-0.337L0.153,-0.104C0.153,-0.095 0.154,-0.087 0.155,-0.079C0.156,-0.07 0.158,-0.063 0.161,-0.056C0.164,-0.049 0.168,-0.044 0.174,-0.04C0.179,-0.036 0.187,-0.034 0.197,-0.034C0.217,-0.034 0.234,-0.038 0.247,-0.047C0.26,-0.056 0.274,-0.067 0.287,-0.08L0.296,-0.07C0.285,-0.06 0.274,-0.05 0.263,-0.04C0.252,-0.029 0.241,-0.02 0.23,-0.012C0.218,-0.003 0.205,0.004 0.192,0.009C0.178,0.014 0.163,0.016 0.147,0.016C0.119,0.016 0.1,0.008 0.09,-0.01C0.08,-0.027 0.075,-0.047 0.075,-0.07L0.075,-0.337L-0.005,-0.337Z" style="fill:#505050;fill-rule:nonzero;"/>
                </g>
                <g transform="matrix(49.7301,0,0,49.7301,693.453,88.0587)">
                    <path d="M0.502,0.004C0.483,0.003 0.462,0.002 0.44,0.001C0.418,0 0.396,-0 0.373,-0C0.358,-0 0.343,0 0.329,0.001C0.314,0.002 0.3,0.003 0.287,0.004L0.287,-0.008C0.308,-0.012 0.325,-0.018 0.337,-0.025C0.348,-0.032 0.354,-0.046 0.354,-0.068L0.354,-0.229C0.354,-0.263 0.347,-0.289 0.333,-0.308C0.318,-0.327 0.295,-0.336 0.263,-0.336C0.252,-0.336 0.24,-0.334 0.228,-0.331C0.216,-0.328 0.205,-0.323 0.195,-0.318C0.185,-0.312 0.177,-0.306 0.17,-0.299C0.163,-0.292 0.16,-0.286 0.16,-0.28L0.16,-0.068C0.16,-0.046 0.166,-0.032 0.179,-0.025C0.192,-0.018 0.211,-0.012 0.236,-0.008L0.236,0.004C0.213,0.003 0.191,0.002 0.169,0.001C0.146,0 0.124,-0 0.101,-0C0.086,-0 0.071,0 0.057,0.001C0.042,0.002 0.027,0.003 0.012,0.004L0.012,-0.008C0.035,-0.012 0.052,-0.018 0.064,-0.025C0.076,-0.032 0.082,-0.046 0.082,-0.068L0.082,-0.578C0.082,-0.602 0.081,-0.621 0.079,-0.635C0.076,-0.648 0.072,-0.659 0.067,-0.666C0.061,-0.673 0.053,-0.677 0.044,-0.679C0.034,-0.681 0.022,-0.682 0.007,-0.683L0.007,-0.695L0.16,-0.712L0.16,-0.325C0.178,-0.339 0.199,-0.352 0.222,-0.365C0.245,-0.378 0.268,-0.384 0.289,-0.384C0.308,-0.384 0.326,-0.382 0.343,-0.377C0.36,-0.372 0.375,-0.365 0.388,-0.354C0.401,-0.343 0.412,-0.329 0.42,-0.311C0.428,-0.293 0.432,-0.271 0.432,-0.244L0.432,-0.068C0.432,-0.046 0.438,-0.032 0.45,-0.025C0.462,-0.018 0.479,-0.012 0.502,-0.008L0.502,0.004Z" style="fill:#505050;fill-rule:nonzero;"/>
                </g>
                <g transform="matrix(49.7301,0,0,49.7301,737.181,88.0587)">
                    <path d="M0.007,-0.008C0.024,-0.009 0.038,-0.011 0.048,-0.016C0.057,-0.021 0.065,-0.027 0.07,-0.036C0.075,-0.045 0.078,-0.055 0.079,-0.067C0.08,-0.079 0.08,-0.093 0.08,-0.108L0.08,-0.333L0.031,-0.333L0.037,-0.363L0.08,-0.363L0.08,-0.47C0.08,-0.493 0.083,-0.518 0.09,-0.546C0.096,-0.574 0.106,-0.6 0.12,-0.625C0.134,-0.65 0.152,-0.67 0.175,-0.687C0.198,-0.704 0.225,-0.712 0.258,-0.712C0.29,-0.712 0.317,-0.704 0.34,-0.687C0.362,-0.67 0.373,-0.648 0.373,-0.62C0.373,-0.604 0.37,-0.593 0.365,-0.587C0.36,-0.581 0.349,-0.578 0.334,-0.578C0.324,-0.578 0.317,-0.581 0.313,-0.587C0.309,-0.593 0.307,-0.607 0.307,-0.628C0.307,-0.633 0.306,-0.639 0.304,-0.646C0.302,-0.653 0.299,-0.661 0.294,-0.668C0.289,-0.675 0.282,-0.68 0.274,-0.685C0.265,-0.69 0.255,-0.692 0.243,-0.692C0.226,-0.692 0.212,-0.687 0.201,-0.677C0.19,-0.667 0.182,-0.655 0.175,-0.641C0.168,-0.626 0.164,-0.611 0.162,-0.595C0.159,-0.579 0.158,-0.565 0.158,-0.554L0.158,-0.363L0.285,-0.363L0.285,-0.333L0.158,-0.333L0.158,-0.108C0.158,-0.093 0.159,-0.079 0.161,-0.067C0.162,-0.055 0.167,-0.045 0.174,-0.036C0.181,-0.027 0.193,-0.021 0.208,-0.016C0.223,-0.011 0.244,-0.009 0.271,-0.008L0.271,0.004C0.248,0.003 0.225,0.002 0.202,0.001C0.179,0 0.156,-0 0.133,-0C0.112,-0 0.091,0 0.07,0.001C0.049,0.002 0.028,0.003 0.007,0.004L0.007,-0.008Z" style="fill:#505050;fill-rule:nonzero;"/>
                </g>
                <g transform="matrix(49.7301,0,0,49.7301,756.513,88.0587)">
                    <path d="M-0.001,-0.008C0.016,-0.009 0.029,-0.012 0.039,-0.016C0.049,-0.019 0.057,-0.025 0.062,-0.032C0.067,-0.039 0.071,-0.049 0.072,-0.062C0.073,-0.075 0.074,-0.091 0.074,-0.11L0.074,-0.612C0.074,-0.638 0.07,-0.656 0.062,-0.667C0.054,-0.677 0.035,-0.682 0.005,-0.682L0.005,-0.694L0.152,-0.712L0.152,-0.11C0.152,-0.091 0.153,-0.075 0.154,-0.062C0.155,-0.049 0.159,-0.039 0.165,-0.032C0.17,-0.025 0.178,-0.019 0.189,-0.016C0.199,-0.012 0.213,-0.009 0.231,-0.008L0.231,0.004C0.212,0.003 0.192,0.002 0.172,0.001C0.151,0 0.131,-0 0.111,-0C0.092,-0 0.073,0 0.055,0.001C0.036,0.002 0.018,0.003 -0.001,0.004L-0.001,-0.008Z" style="fill:#505050;fill-rule:nonzero;"/>
                </g>
                <g transform="matrix(49.7301,0,0,49.7301,770.722,88.0587)">
                    <path d="M0.054,-0.292C0.059,-0.313 0.067,-0.329 0.077,-0.342C0.086,-0.354 0.097,-0.363 0.11,-0.37C0.123,-0.376 0.137,-0.38 0.153,-0.382C0.169,-0.383 0.186,-0.384 0.204,-0.384C0.221,-0.384 0.239,-0.382 0.256,-0.379C0.273,-0.375 0.288,-0.369 0.302,-0.36C0.315,-0.351 0.326,-0.34 0.335,-0.326C0.343,-0.311 0.347,-0.294 0.347,-0.273L0.347,-0.088C0.347,-0.075 0.35,-0.064 0.357,-0.055C0.364,-0.045 0.374,-0.04 0.388,-0.04C0.401,-0.04 0.413,-0.044 0.424,-0.052C0.434,-0.059 0.444,-0.067 0.453,-0.074L0.463,-0.063C0.456,-0.056 0.448,-0.048 0.44,-0.04C0.431,-0.031 0.421,-0.022 0.411,-0.014C0.401,-0.005 0.391,0.002 0.381,0.008C0.37,0.013 0.36,0.016 0.35,0.016C0.343,0.016 0.336,0.014 0.329,0.01C0.322,0.005 0.315,0 0.308,-0.006C0.301,-0.012 0.294,-0.018 0.288,-0.025C0.282,-0.032 0.277,-0.037 0.272,-0.042C0.251,-0.027 0.227,-0.014 0.2,-0.002C0.173,0.01 0.147,0.016 0.122,0.016C0.108,0.016 0.095,0.014 0.082,0.009C0.069,0.004 0.057,-0.002 0.047,-0.011C0.037,-0.02 0.029,-0.03 0.023,-0.042C0.017,-0.054 0.014,-0.068 0.014,-0.083C0.014,-0.11 0.022,-0.132 0.037,-0.149C0.052,-0.165 0.072,-0.177 0.097,-0.186C0.121,-0.195 0.149,-0.201 0.18,-0.204C0.211,-0.207 0.242,-0.208 0.273,-0.209L0.273,-0.285C0.273,-0.31 0.265,-0.329 0.25,-0.342C0.235,-0.355 0.215,-0.362 0.192,-0.362C0.175,-0.362 0.161,-0.353 0.151,-0.336C0.141,-0.319 0.136,-0.299 0.136,-0.277L0.054,-0.292ZM0.271,-0.17C0.249,-0.176 0.227,-0.179 0.204,-0.179C0.191,-0.179 0.179,-0.178 0.166,-0.175C0.153,-0.172 0.142,-0.167 0.132,-0.16C0.122,-0.153 0.114,-0.145 0.108,-0.135C0.101,-0.124 0.098,-0.112 0.098,-0.097C0.098,-0.074 0.106,-0.058 0.122,-0.049C0.137,-0.039 0.155,-0.034 0.174,-0.034C0.195,-0.034 0.215,-0.038 0.233,-0.047C0.25,-0.056 0.263,-0.063 0.271,-0.069L0.271,-0.17Z" style="fill:#505050;fill-rule:nonzero;"/>
                </g>
                <g transform="matrix(49.7301,0,0,49.7301,795.077,88.0587)">
                    <path d="M-0.018,-0.372C0.003,-0.371 0.018,-0.371 0.027,-0.37C0.035,-0.369 0.041,-0.369 0.046,-0.369L0.075,-0.369C0.08,-0.369 0.087,-0.369 0.094,-0.368C0.105,-0.369 0.114,-0.369 0.121,-0.369L0.161,-0.369C0.167,-0.369 0.173,-0.369 0.18,-0.37C0.187,-0.371 0.198,-0.371 0.213,-0.372L0.213,-0.36C0.199,-0.358 0.185,-0.353 0.172,-0.346C0.159,-0.339 0.152,-0.327 0.152,-0.311C0.152,-0.3 0.157,-0.282 0.166,-0.26C0.174,-0.237 0.185,-0.213 0.197,-0.188C0.208,-0.163 0.22,-0.14 0.231,-0.119C0.242,-0.097 0.25,-0.081 0.255,-0.072C0.262,-0.085 0.271,-0.102 0.284,-0.125C0.297,-0.147 0.309,-0.17 0.322,-0.194C0.334,-0.218 0.345,-0.241 0.354,-0.262C0.363,-0.283 0.367,-0.299 0.367,-0.31C0.367,-0.329 0.362,-0.342 0.351,-0.348C0.339,-0.354 0.326,-0.358 0.31,-0.36L0.31,-0.372C0.323,-0.371 0.338,-0.37 0.357,-0.369C0.376,-0.368 0.392,-0.368 0.406,-0.368C0.421,-0.368 0.435,-0.368 0.45,-0.369C0.464,-0.37 0.478,-0.371 0.493,-0.372L0.493,-0.36C0.484,-0.359 0.476,-0.357 0.467,-0.354C0.458,-0.35 0.45,-0.344 0.441,-0.336C0.432,-0.327 0.422,-0.316 0.413,-0.302C0.403,-0.288 0.393,-0.27 0.382,-0.249C0.359,-0.205 0.335,-0.162 0.312,-0.12C0.289,-0.078 0.267,-0.034 0.248,0.012L0.212,0.012C0.191,-0.036 0.167,-0.085 0.143,-0.136C0.118,-0.186 0.095,-0.234 0.075,-0.28C0.066,-0.299 0.054,-0.317 0.039,-0.332C0.024,-0.347 0.005,-0.357 -0.018,-0.36L-0.018,-0.372Z" style="fill:#505050;fill-rule:nonzero;"/>
                </g>
                <g transform="matrix(49.7301,0,0,49.7301,821.272,88.0587)">
                    <path d="M0.239,-0.384C0.271,-0.384 0.3,-0.379 0.327,-0.37C0.353,-0.36 0.376,-0.346 0.395,-0.329C0.413,-0.312 0.428,-0.291 0.439,-0.266C0.449,-0.241 0.454,-0.214 0.454,-0.184C0.454,-0.154 0.449,-0.127 0.439,-0.102C0.428,-0.077 0.413,-0.056 0.395,-0.039C0.376,-0.022 0.353,-0.008 0.327,0.002C0.3,0.011 0.271,0.016 0.239,0.016C0.207,0.016 0.178,0.011 0.152,0.002C0.125,-0.008 0.102,-0.022 0.084,-0.039C0.065,-0.056 0.05,-0.077 0.04,-0.102C0.029,-0.127 0.024,-0.154 0.024,-0.184C0.024,-0.214 0.029,-0.241 0.04,-0.266C0.05,-0.291 0.065,-0.312 0.084,-0.329C0.102,-0.346 0.125,-0.36 0.152,-0.37C0.178,-0.379 0.207,-0.384 0.239,-0.384ZM0.221,-0.354C0.202,-0.354 0.186,-0.349 0.173,-0.34C0.159,-0.331 0.148,-0.319 0.139,-0.304C0.13,-0.289 0.123,-0.272 0.119,-0.253C0.114,-0.234 0.112,-0.215 0.112,-0.196C0.112,-0.175 0.115,-0.153 0.121,-0.132C0.126,-0.111 0.135,-0.091 0.147,-0.074C0.159,-0.056 0.174,-0.042 0.192,-0.031C0.21,-0.02 0.232,-0.014 0.257,-0.014C0.276,-0.014 0.292,-0.019 0.306,-0.028C0.319,-0.037 0.331,-0.05 0.34,-0.065C0.349,-0.08 0.355,-0.096 0.36,-0.115C0.364,-0.134 0.366,-0.153 0.366,-0.172C0.366,-0.193 0.363,-0.214 0.357,-0.236C0.351,-0.257 0.342,-0.277 0.33,-0.295C0.318,-0.312 0.303,-0.327 0.285,-0.338C0.267,-0.349 0.246,-0.354 0.221,-0.354Z" style="fill:#505050;fill-rule:nonzero;"/>
                </g>
                <g transform="matrix(49.7301,0,0,49.7301,847.467,88.0587)">
                    <path d="M0.156,-0.122C0.156,-0.094 0.163,-0.072 0.178,-0.057C0.192,-0.042 0.213,-0.034 0.241,-0.034C0.262,-0.034 0.284,-0.039 0.305,-0.05C0.326,-0.06 0.341,-0.071 0.351,-0.082L0.351,-0.293C0.351,-0.302 0.35,-0.31 0.349,-0.317C0.348,-0.324 0.344,-0.331 0.339,-0.337C0.334,-0.342 0.326,-0.347 0.315,-0.352C0.304,-0.356 0.29,-0.359 0.272,-0.362L0.272,-0.373L0.429,-0.384L0.429,-0.077C0.429,-0.052 0.436,-0.035 0.449,-0.027C0.462,-0.018 0.48,-0.013 0.503,-0.012L0.503,-0.002C0.478,-0.001 0.452,0 0.427,0.001C0.401,0.002 0.376,0.003 0.351,0.004L0.351,-0.048C0.328,-0.031 0.303,-0.016 0.278,-0.003C0.252,0.01 0.224,0.016 0.194,0.016C0.162,0.016 0.135,0.007 0.112,-0.011C0.089,-0.029 0.078,-0.057 0.078,-0.094L0.078,-0.301C0.078,-0.321 0.073,-0.335 0.062,-0.342C0.05,-0.349 0.031,-0.355 0.003,-0.358L0.003,-0.371L0.156,-0.384L0.156,-0.122Z" style="fill:#505050;fill-rule:nonzero;"/>
                </g>
                <g transform="matrix(49.7301,0,0,49.7301,875.502,88.0587)">
                    <path d="M0.009,-0.008C0.032,-0.012 0.049,-0.018 0.061,-0.025C0.073,-0.032 0.079,-0.046 0.079,-0.068L0.079,-0.3C0.079,-0.32 0.072,-0.332 0.059,-0.337C0.045,-0.342 0.029,-0.344 0.011,-0.344L0.011,-0.356L0.157,-0.378L0.157,-0.321C0.165,-0.326 0.174,-0.333 0.185,-0.342C0.195,-0.351 0.206,-0.359 0.218,-0.368C0.229,-0.376 0.241,-0.383 0.253,-0.389C0.265,-0.395 0.277,-0.398 0.288,-0.398C0.314,-0.398 0.334,-0.391 0.347,-0.377C0.36,-0.362 0.367,-0.342 0.368,-0.317L0.288,-0.275C0.289,-0.28 0.291,-0.285 0.292,-0.29C0.293,-0.295 0.294,-0.301 0.294,-0.309C0.294,-0.318 0.291,-0.327 0.284,-0.336C0.277,-0.344 0.268,-0.348 0.257,-0.348C0.248,-0.348 0.238,-0.346 0.229,-0.341C0.22,-0.336 0.211,-0.331 0.202,-0.324C0.193,-0.317 0.185,-0.309 0.178,-0.301C0.17,-0.293 0.163,-0.286 0.157,-0.28L0.157,-0.068C0.157,-0.046 0.163,-0.032 0.176,-0.025C0.189,-0.018 0.208,-0.012 0.233,-0.008L0.233,0.004C0.21,0.003 0.188,0.002 0.166,0.001C0.143,0 0.121,-0 0.098,-0C0.083,-0 0.068,0 0.054,0.001C0.039,0.002 0.024,0.003 0.009,0.004L0.009,-0.008Z" style="fill:#505050;fill-rule:nonzero;"/>
                </g>
            </g>
            <g transform="matrix(100.506,0,0,100.506,593.177,126.121)">
                <path d="M0.434,-0.496L0.552,-0.496L0.552,-0.168C0.552,-0.13 0.552,-0.096 0.551,-0.067C0.55,-0.037 0.547,-0.01 0.543,0.014C0.539,0.037 0.533,0.058 0.524,0.077C0.515,0.096 0.502,0.113 0.486,0.129C0.457,0.158 0.424,0.177 0.388,0.188C0.351,0.199 0.313,0.204 0.273,0.204C0.239,0.204 0.207,0.2 0.177,0.192C0.147,0.184 0.12,0.173 0.096,0.159L0.096,0.03C0.102,0.039 0.111,0.048 0.122,0.055C0.133,0.062 0.145,0.069 0.16,0.074C0.174,0.079 0.189,0.084 0.206,0.087C0.222,0.09 0.238,0.091 0.255,0.091C0.277,0.091 0.298,0.088 0.317,0.083C0.336,0.077 0.353,0.068 0.368,0.055C0.382,0.042 0.393,0.027 0.402,0.008C0.41,-0.012 0.414,-0.035 0.414,-0.062L0.414,-0.072C0.395,-0.055 0.372,-0.041 0.347,-0.031C0.322,-0.02 0.294,-0.015 0.264,-0.015C0.231,-0.015 0.2,-0.022 0.172,-0.035C0.143,-0.048 0.119,-0.065 0.098,-0.088C0.077,-0.11 0.061,-0.136 0.05,-0.167C0.038,-0.197 0.032,-0.229 0.032,-0.263C0.032,-0.297 0.038,-0.329 0.05,-0.359C0.061,-0.389 0.077,-0.415 0.098,-0.438C0.119,-0.46 0.143,-0.478 0.172,-0.491C0.2,-0.503 0.231,-0.51 0.264,-0.51C0.295,-0.51 0.324,-0.506 0.349,-0.498C0.374,-0.489 0.396,-0.476 0.414,-0.458L0.434,-0.496ZM0.292,-0.138C0.313,-0.138 0.332,-0.142 0.347,-0.15C0.362,-0.157 0.375,-0.167 0.385,-0.179C0.395,-0.191 0.402,-0.204 0.407,-0.219C0.412,-0.234 0.414,-0.248 0.414,-0.262C0.414,-0.277 0.412,-0.293 0.407,-0.308C0.402,-0.323 0.394,-0.336 0.384,-0.348C0.374,-0.359 0.361,-0.369 0.346,-0.376C0.331,-0.383 0.313,-0.387 0.292,-0.387C0.275,-0.387 0.259,-0.384 0.244,-0.377C0.229,-0.37 0.217,-0.361 0.206,-0.35C0.195,-0.339 0.186,-0.326 0.18,-0.311C0.173,-0.296 0.17,-0.279 0.17,-0.262C0.17,-0.245 0.173,-0.229 0.18,-0.214C0.186,-0.199 0.195,-0.185 0.206,-0.174C0.217,-0.163 0.229,-0.154 0.244,-0.148C0.259,-0.141 0.275,-0.138 0.292,-0.138Z" style="fill:#cb6ce6;fill-rule:nonzero;"/>
            </g>
            <g transform="matrix(100.506,0,0,100.506,654.886,126.121)">
                <path d="M0.29,-0.51C0.327,-0.51 0.361,-0.503 0.392,-0.488C0.423,-0.472 0.449,-0.453 0.471,-0.429C0.493,-0.404 0.51,-0.376 0.522,-0.345C0.534,-0.313 0.54,-0.28 0.54,-0.247C0.54,-0.227 0.537,-0.206 0.532,-0.183L0.178,-0.183C0.191,-0.16 0.21,-0.141 0.235,-0.126C0.26,-0.11 0.286,-0.102 0.315,-0.102C0.344,-0.102 0.369,-0.104 0.391,-0.109C0.412,-0.114 0.433,-0.12 0.452,-0.127L0.498,-0.042C0.473,-0.025 0.445,-0.011 0.414,-0.002C0.382,0.007 0.348,0.012 0.312,0.012C0.273,0.012 0.236,0.005 0.202,-0.009C0.168,-0.022 0.138,-0.041 0.113,-0.064C0.088,-0.087 0.068,-0.115 0.053,-0.147C0.038,-0.179 0.031,-0.213 0.031,-0.249C0.031,-0.284 0.038,-0.318 0.051,-0.35C0.064,-0.381 0.083,-0.409 0.107,-0.433C0.13,-0.456 0.158,-0.475 0.189,-0.489C0.22,-0.503 0.254,-0.51 0.29,-0.51ZM0.403,-0.29C0.395,-0.319 0.381,-0.342 0.36,-0.36C0.339,-0.378 0.316,-0.387 0.29,-0.387C0.263,-0.387 0.239,-0.378 0.218,-0.36C0.196,-0.342 0.181,-0.319 0.173,-0.29L0.403,-0.29Z" style="fill:#cb6ce6;fill-rule:nonzero;"/>
            </g>
            <g transform="matrix(100.506,0,0,100.506,711.663,126.121)">
                <path d="M0.303,-0.496C0.322,-0.496 0.342,-0.493 0.365,-0.488C0.388,-0.483 0.409,-0.473 0.429,-0.458C0.449,-0.443 0.466,-0.423 0.48,-0.397C0.493,-0.371 0.5,-0.337 0.5,-0.296L0.5,-0L0.361,-0L0.361,-0.291C0.361,-0.306 0.359,-0.319 0.354,-0.33C0.349,-0.341 0.342,-0.349 0.334,-0.356C0.325,-0.362 0.316,-0.367 0.305,-0.37C0.294,-0.373 0.284,-0.374 0.273,-0.374C0.264,-0.374 0.255,-0.373 0.245,-0.37C0.234,-0.367 0.225,-0.362 0.216,-0.355C0.207,-0.348 0.199,-0.34 0.193,-0.329C0.187,-0.318 0.184,-0.306 0.184,-0.291L0.184,-0L0.046,-0L0.046,-0.496L0.164,-0.496L0.184,-0.458C0.2,-0.469 0.218,-0.478 0.238,-0.486C0.258,-0.493 0.28,-0.496 0.303,-0.496Z" style="fill:#cb6ce6;fill-rule:nonzero;"/>
            </g>
            <g transform="matrix(100.506,0,0,100.506,768.146,126.121)">
                <path d="M0.195,-0L0.057,-0L0.057,-0.496L0.195,-0.496L0.195,-0ZM0.126,-0.564C0.105,-0.564 0.087,-0.571 0.072,-0.586C0.057,-0.601 0.05,-0.619 0.05,-0.64C0.05,-0.661 0.057,-0.68 0.072,-0.695C0.087,-0.709 0.105,-0.717 0.126,-0.717C0.147,-0.717 0.165,-0.709 0.18,-0.695C0.195,-0.68 0.202,-0.661 0.202,-0.64C0.202,-0.619 0.195,-0.601 0.18,-0.586C0.165,-0.571 0.147,-0.564 0.126,-0.564Z" style="fill:#cb6ce6;fill-rule:nonzero;"/>
            </g>
            <g transform="matrix(100.506,0,0,100.506,795.684,126.121)">
                <path d="M0.359,-0.496L0.497,-0.496L0.497,-0L0.379,-0L0.359,-0.038C0.343,-0.027 0.325,-0.018 0.305,-0.011C0.284,-0.004 0.262,-0 0.239,-0C0.221,-0 0.2,-0.003 0.178,-0.008C0.155,-0.013 0.133,-0.023 0.113,-0.038C0.093,-0.053 0.076,-0.073 0.063,-0.099C0.049,-0.125 0.042,-0.159 0.042,-0.2L0.042,-0.496L0.181,-0.496L0.181,-0.205C0.181,-0.19 0.184,-0.177 0.189,-0.166C0.194,-0.155 0.2,-0.147 0.209,-0.141C0.217,-0.134 0.226,-0.13 0.237,-0.127C0.248,-0.124 0.259,-0.122 0.27,-0.122C0.279,-0.122 0.288,-0.124 0.299,-0.127C0.309,-0.13 0.319,-0.134 0.328,-0.141C0.337,-0.148 0.344,-0.156 0.35,-0.167C0.356,-0.178 0.359,-0.19 0.359,-0.205L0.359,-0.496Z" style="fill:#cb6ce6;fill-rule:nonzero;"/>
            </g>
            <g transform="matrix(100.506,0,0,100.506,852.368,126.121)">
                <path d="M0.36,-0.26C0.397,-0.234 0.415,-0.197 0.415,-0.149C0.415,-0.127 0.41,-0.106 0.4,-0.087C0.389,-0.068 0.375,-0.051 0.357,-0.036C0.339,-0.021 0.318,-0.01 0.294,-0.002C0.27,0.007 0.244,0.011 0.217,0.011C0.196,0.011 0.176,0.008 0.157,0.003C0.137,-0.002 0.119,-0.01 0.102,-0.019C0.085,-0.028 0.071,-0.04 0.059,-0.053C0.046,-0.066 0.037,-0.08 0.031,-0.096C0.046,-0.103 0.063,-0.112 0.082,-0.121C0.101,-0.13 0.117,-0.138 0.131,-0.145C0.137,-0.135 0.146,-0.126 0.159,-0.118C0.172,-0.109 0.189,-0.105 0.211,-0.105C0.234,-0.105 0.25,-0.11 0.261,-0.121C0.272,-0.132 0.277,-0.142 0.277,-0.151C0.277,-0.158 0.273,-0.164 0.266,-0.17C0.259,-0.175 0.25,-0.18 0.241,-0.183C0.228,-0.188 0.217,-0.191 0.208,-0.192C0.199,-0.192 0.189,-0.194 0.178,-0.197C0.142,-0.206 0.115,-0.217 0.096,-0.232C0.077,-0.246 0.063,-0.26 0.054,-0.275C0.045,-0.29 0.041,-0.304 0.04,-0.317C0.039,-0.33 0.038,-0.341 0.038,-0.349C0.038,-0.37 0.043,-0.391 0.052,-0.41C0.061,-0.429 0.074,-0.446 0.091,-0.461C0.107,-0.475 0.126,-0.486 0.148,-0.495C0.169,-0.504 0.192,-0.508 0.217,-0.508C0.238,-0.508 0.257,-0.505 0.276,-0.499C0.295,-0.493 0.312,-0.485 0.327,-0.474C0.342,-0.463 0.356,-0.451 0.367,-0.436C0.378,-0.421 0.386,-0.405 0.391,-0.387L0.284,-0.351C0.28,-0.363 0.272,-0.373 0.26,-0.38C0.247,-0.387 0.234,-0.391 0.22,-0.391C0.206,-0.391 0.195,-0.386 0.186,-0.377C0.177,-0.368 0.173,-0.358 0.173,-0.349C0.173,-0.338 0.177,-0.329 0.186,-0.323C0.194,-0.316 0.203,-0.312 0.213,-0.309C0.22,-0.308 0.228,-0.307 0.235,-0.306C0.242,-0.305 0.248,-0.303 0.255,-0.302C0.278,-0.297 0.299,-0.291 0.316,-0.284C0.333,-0.277 0.347,-0.269 0.36,-0.26Z" style="fill:#cb6ce6;fill-rule:nonzero;"/>
            </g>
            <g transform="matrix(100.506,0,0,100.506,336.717,126.121)">
                <path d="M0.084,-0.538C0.084,-0.573 0.089,-0.603 0.1,-0.628C0.11,-0.653 0.124,-0.673 0.141,-0.69C0.158,-0.706 0.178,-0.718 0.201,-0.726C0.224,-0.733 0.248,-0.737 0.273,-0.737C0.288,-0.737 0.304,-0.736 0.319,-0.733C0.334,-0.73 0.35,-0.726 0.365,-0.721L0.354,-0.62L0.321,-0.625C0.316,-0.626 0.311,-0.626 0.307,-0.627C0.302,-0.627 0.298,-0.627 0.294,-0.627C0.269,-0.627 0.25,-0.621 0.239,-0.609C0.227,-0.596 0.221,-0.578 0.221,-0.555L0.221,-0.496L0.354,-0.496L0.354,-0.373L0.221,-0.373L0.221,-0L0.084,-0L0.084,-0.373L0.019,-0.373L0.019,-0.446L0.084,-0.496L0.084,-0.538Z" style="fill:#cb6ce6;fill-rule:nonzero;"/>
            </g>
            <g transform="matrix(100.506,0,0,100.506,376.918,126.121)">
                <path d="M0.289,-0.51C0.324,-0.51 0.358,-0.503 0.389,-0.49C0.42,-0.476 0.448,-0.457 0.471,-0.434C0.494,-0.41 0.513,-0.382 0.527,-0.351C0.54,-0.319 0.547,-0.285 0.547,-0.249C0.547,-0.213 0.54,-0.179 0.527,-0.148C0.513,-0.116 0.494,-0.088 0.471,-0.065C0.448,-0.041 0.42,-0.022 0.389,-0.009C0.358,0.005 0.324,0.012 0.289,0.012C0.253,0.012 0.219,0.005 0.188,-0.009C0.157,-0.022 0.129,-0.041 0.106,-0.065C0.083,-0.088 0.064,-0.116 0.051,-0.148C0.037,-0.179 0.03,-0.213 0.03,-0.249C0.03,-0.285 0.037,-0.319 0.051,-0.351C0.064,-0.382 0.083,-0.41 0.106,-0.434C0.129,-0.457 0.157,-0.476 0.188,-0.49C0.219,-0.503 0.253,-0.51 0.289,-0.51ZM0.289,-0.109C0.306,-0.109 0.321,-0.112 0.336,-0.119C0.35,-0.126 0.363,-0.135 0.374,-0.147C0.385,-0.158 0.393,-0.172 0.4,-0.189C0.406,-0.205 0.409,-0.223 0.409,-0.243C0.409,-0.263 0.406,-0.282 0.4,-0.299C0.393,-0.316 0.385,-0.332 0.374,-0.345C0.363,-0.358 0.35,-0.368 0.336,-0.376C0.321,-0.383 0.306,-0.387 0.289,-0.387C0.272,-0.387 0.257,-0.383 0.242,-0.376C0.227,-0.368 0.215,-0.358 0.204,-0.345C0.193,-0.332 0.184,-0.316 0.178,-0.299C0.171,-0.282 0.168,-0.263 0.168,-0.243C0.168,-0.223 0.171,-0.205 0.178,-0.189C0.184,-0.172 0.193,-0.158 0.204,-0.147C0.215,-0.135 0.227,-0.126 0.242,-0.119C0.257,-0.112 0.272,-0.109 0.289,-0.109Z" style="fill:#cb6ce6;fill-rule:nonzero;"/>
            </g>
            <g transform="matrix(100.506,0,0,100.506,436.717,126.121)">
                <path d="M0.289,-0.51C0.324,-0.51 0.358,-0.503 0.389,-0.49C0.42,-0.476 0.448,-0.457 0.471,-0.434C0.494,-0.41 0.513,-0.382 0.527,-0.351C0.54,-0.319 0.547,-0.285 0.547,-0.249C0.547,-0.213 0.54,-0.179 0.527,-0.148C0.513,-0.116 0.494,-0.088 0.471,-0.065C0.448,-0.041 0.42,-0.022 0.389,-0.009C0.358,0.005 0.324,0.012 0.289,0.012C0.253,0.012 0.219,0.005 0.188,-0.009C0.157,-0.022 0.129,-0.041 0.106,-0.065C0.083,-0.088 0.064,-0.116 0.051,-0.148C0.037,-0.179 0.03,-0.213 0.03,-0.249C0.03,-0.285 0.037,-0.319 0.051,-0.351C0.064,-0.382 0.083,-0.41 0.106,-0.434C0.129,-0.457 0.157,-0.476 0.188,-0.49C0.219,-0.503 0.253,-0.51 0.289,-0.51ZM0.289,-0.109C0.306,-0.109 0.321,-0.112 0.336,-0.119C0.35,-0.126 0.363,-0.135 0.374,-0.147C0.385,-0.158 0.393,-0.172 0.4,-0.189C0.406,-0.205 0.409,-0.223 0.409,-0.243C0.409,-0.263 0.406,-0.282 0.4,-0.299C0.393,-0.316 0.385,-0.332 0.374,-0.345C0.363,-0.358 0.35,-0.368 0.336,-0.376C0.321,-0.383 0.306,-0.387 0.289,-0.387C0.272,-0.387 0.257,-0.383 0.242,-0.376C0.227,-0.368 0.215,-0.358 0.204,-0.345C0.193,-0.332 0.184,-0.316 0.178,-0.299C0.171,-0.282 0.168,-0.263 0.168,-0.243C0.168,-0.223 0.171,-0.205 0.178,-0.189C0.184,-0.172 0.193,-0.158 0.204,-0.147C0.215,-0.135 0.227,-0.126 0.242,-0.119C0.257,-0.112 0.272,-0.109 0.289,-0.109Z" style="fill:#cb6ce6;fill-rule:nonzero;"/>
            </g>
            <g transform="matrix(100.506,0,0,100.506,496.517,126.121)">
                <path d="M0.545,-0.73L0.545,-0L0.427,-0L0.407,-0.043C0.392,-0.027 0.371,-0.014 0.344,-0.004C0.317,0.007 0.288,0.012 0.259,0.012C0.224,0.012 0.191,0.005 0.161,-0.009C0.131,-0.022 0.105,-0.041 0.084,-0.065C0.062,-0.088 0.045,-0.116 0.033,-0.148C0.02,-0.179 0.014,-0.213 0.014,-0.249C0.014,-0.285 0.02,-0.319 0.033,-0.351C0.045,-0.382 0.062,-0.41 0.084,-0.434C0.105,-0.457 0.131,-0.476 0.161,-0.49C0.191,-0.503 0.224,-0.51 0.259,-0.51C0.29,-0.51 0.318,-0.506 0.343,-0.499C0.367,-0.492 0.388,-0.479 0.407,-0.462L0.407,-0.73L0.545,-0.73ZM0.407,-0.247C0.407,-0.273 0.404,-0.295 0.397,-0.313C0.39,-0.33 0.381,-0.345 0.369,-0.356C0.357,-0.367 0.343,-0.375 0.328,-0.38C0.312,-0.385 0.295,-0.387 0.277,-0.387C0.259,-0.387 0.242,-0.383 0.227,-0.376C0.211,-0.369 0.197,-0.359 0.186,-0.347C0.174,-0.334 0.165,-0.32 0.158,-0.303C0.151,-0.286 0.148,-0.268 0.148,-0.249C0.148,-0.23 0.151,-0.212 0.158,-0.195C0.165,-0.178 0.174,-0.164 0.186,-0.152C0.197,-0.139 0.211,-0.129 0.227,-0.122C0.242,-0.115 0.259,-0.111 0.277,-0.111C0.313,-0.111 0.343,-0.122 0.369,-0.145C0.394,-0.167 0.406,-0.201 0.407,-0.247Z" style="fill:#cb6ce6;fill-rule:nonzero;"/>
            </g>
        </g>
    </g>
</svg>
